<svg width="17" height="17" viewBox="0 0 17 17" fill="none" xmlns="http://www.w3.org/2000/svg">
<path d="M8.5576 14.0002H14.5576M2.55762 14.0002H3.67398C4.0001 14.0002 4.16316 14.0002 4.31661 13.9633C4.45266 13.9306 4.58272 13.8768 4.70201 13.8037C4.83657 13.7212 4.95187 13.6059 5.18247 13.3753L13.5576 5.00015C14.1099 4.44787 14.1099 3.55244 13.5576 3.00015C13.0053 2.44787 12.1099 2.44787 11.5576 3.00015L3.18246 11.3753C2.95185 11.6059 2.83655 11.7212 2.7541 11.8558C2.68099 11.9751 2.62712 12.1051 2.59446 12.2412C2.55762 12.3946 2.55762 12.5577 2.55762 12.8838V14.0002Z" stroke="#2B5F44" stroke-width="1.5" stroke-linecap="round" stroke-linejoin="round"/>
</svg>
