<svg width="17" height="17" viewBox="0 0 17 17" fill="none" xmlns="http://www.w3.org/2000/svg">
<g clip-path="url(#clip0_14_17965)">
<path d="M11.2243 4.66716V4.13382C11.2243 3.38709 11.2243 3.01372 11.079 2.7285C10.9511 2.47762 10.7472 2.27364 10.4963 2.14581C10.2111 2.00049 9.83769 2.00049 9.09095 2.00049H8.02428C7.27755 2.00049 6.90418 2.00049 6.61896 2.14581C6.36808 2.27364 6.16411 2.47762 6.03628 2.7285C5.89095 3.01372 5.89095 3.38709 5.89095 4.13382V4.66716M7.22428 8.33382V11.6672M9.89095 8.33382V11.6672M2.55762 4.66716H14.5576M13.2243 4.66716V12.1338C13.2243 13.2539 13.2243 13.814 13.0063 14.2418C12.8146 14.6181 12.5086 14.9241 12.1323 15.1158C11.7044 15.3338 11.1444 15.3338 10.0243 15.3338H7.09095C5.97085 15.3338 5.41079 15.3338 4.98297 15.1158C4.60665 14.9241 4.30068 14.6181 4.10894 14.2418C3.89095 13.814 3.89095 13.2539 3.89095 12.1338V4.66716" stroke="#2B5F44" stroke-width="1.5" stroke-linecap="round" stroke-linejoin="round"/>
</g>
<defs>
<clipPath id="clip0_14_17965">
<rect width="16" height="16" fill="white" transform="translate(0.557617 0.666992)"/>
</clipPath>
</defs>
</svg>
